<?xml version="1.0" encoding="UTF-8"?>
<svg width="535px" height="373px" viewBox="0 0 535 373" version="1.1" xmlns="http://www.w3.org/2000/svg" xmlns:xlink="http://www.w3.org/1999/xlink">
    <!-- Generator: Sketch 63.1 (92452) - https://sketch.com -->
    <title>illustration-integration</title>
    <desc>Created with Sketch.</desc>
    <g id="PPCP---Main" stroke="none" stroke-width="1" fill="none" fill-rule="evenodd">
        <g id="01-Home---Desktop" transform="translate(-813.000000, -3263.000000)">
            <g id="Developer-Docs" transform="translate(140.000000, 3077.000000)">
                <g id="Docs" transform="translate(722.000000, 186.000000)">
                    <path d="M362.494363,373 L156.00471,372.007831 C143.863861,371.969677 134.032812,362.173373 134,350.08089 L134,168.92694 C134.032884,156.822876 143.882076,147.021804 156.034595,147 L369.985328,147 C382.127805,147.038126 391.961721,156.832853 392,168.92694 L392,343.611947 C391.950772,359.822168 378.769442,372.950969 362.494363,373 Z" id="Path" fill="#DADADA"></path>
                    <rect id="Rectangle" fill="#4A4A4A" x="337" y="245" width="48" height="118" rx="22.5"></rect>
                    <path d="M366.5,92 L251,92 C238.849736,92 229,101.810804 229,113.913043 L229,322.086957 C229,344 251,344 251,344 L416,344 C428.150264,344 438,334.189196 438,322.086957 L438,114.062451 C437.994479,101.876085 428.074726,92 415.84,92 L366.5,92 Z" id="Path" fill="#0069C1" fill-rule="nonzero"></path>
                    <path d="M340.469757,69.0198456 L223.32312,69.0198456 C210.998285,69.0198444 201.005492,78.9818745 201,91.2742443 L201,302.73568 C201,325 223.32312,325 223.32312,325 L390.686828,325 C403.011662,324.994522 413,315.028051 413,302.73568 L413,91.4032266 C413,85.4598026 410.632069,79.7599507 406.417401,75.5582458 C402.202734,71.3565409 396.486781,68.99737 390.527662,69 L340.469757,69.0198456 Z" id="Path" fill="#00B188"></path>
                    <path d="M387,86.5244813 L387,279.38396 C387.002647,286.44378 384.186201,293.215206 379.170807,298.207253 C374.155412,303.1993 367.352317,306 360.259479,306 L159.730539,306 C159.730539,306 133,306 133,279.38396 L133,26.6061054 C132.997353,19.54892 135.812747,12.7800214 140.82627,7.78983741 C145.839792,2.79965341 152.640348,0 159.730539,0 L300.080834,0 L300.080834,59.8687024 C300.067578,66.9354046 302.87934,73.7170481 307.895886,78.7176961 C312.912431,83.7183441 319.721589,86.5271324 326.821353,86.5244813 L387,86.5244813 Z" id="Path" fill="#FFC300" fill-rule="nonzero" opacity="0.8"></path>
                    <path d="M385.645264,86.9901159 L325.872269,86.9901159 C318.746223,86.9927657 311.91113,84.1757152 306.871314,79.1589638 C301.831497,74.1422124 299,67.3369127 299,60.2408301 L299,0 L385.845878,86.4707123 C385.974486,86.5355021 386.032969,86.6867148 385.98123,86.8206711 C385.929491,86.9546275 385.784324,87.0278424 385.645264,86.9901159 L385.645264,86.9901159 Z" id="Path" fill="#F6B445" fill-rule="nonzero" opacity="0.95"></path>
                    <path d="M140.14487,156.850454 L140.14487,147.071506 L310.28959,147.071506 C317.378706,147.066225 324.178704,149.868359 329.189597,154.859797 C334.200489,159.851236 337.010569,166.621869 337,173.678187 L337,346.423056 C337,353.472495 334.190397,360.233964 329.182525,365.21867 C324.174654,370.203376 317.381763,373.000138 310.299564,373.000138 L26.73048,373.000138 C19.6301639,373.013204 12.8174074,370.208805 7.8004623,365.207614 C2.78351721,360.206423 -0.0237500515,353.421005 -0.00044286829,346.353561 L-0.00044286829,143.566969 C-0.00044286829,143.566969 -0.00044286829,117 26.73048,117 L113.504308,117 C113.504308,117 140.19474,117 140.19474,143.566969 L140.14487,156.850454 Z" id="Path" fill="#DADADA"></path>
                </g>
            </g>
            <g id="Slices" transform="translate(140.000000, 18.000000)"></g>
        </g>
    </g>
</svg>